<?xml version="1.0" standalone="no"?>
<!DOCTYPE svg PUBLIC "-//W3C//DTD SVG 1.1//EN" "http://www.w3.org/Graphics/SVG/1.1/DTD/svg11.dtd">
<svg width="100%" height="100%" viewBox="0 0 299 300" version="1.1" xmlns="http://www.w3.org/2000/svg" xmlns:xlink="http://www.w3.org/1999/xlink" xml:space="preserve" style="fill-rule:evenodd;clip-rule:evenodd;stroke-linejoin:round;stroke-miterlimit:1.41421;">
    <g>
        <circle cx="150" cy="150" r="150" style="fill:black;"/>
        <path d="M176.972,96.9109C183.664,111.131 189.938,125.685 195.793,140.575C198.637,147.768 201.314,154.878 203.823,161.905L210.849,132.795C212.188,126.94 212.23,122.716 210.975,120.123C209.72,117.53 206.751,115.731 202.066,114.728C201.063,111.716 200.352,108.621 199.934,105.443C199.515,102.264 199.306,98.9184 199.306,95.4053C202.652,95.7399 206.207,95.949 209.971,96.0326C213.735,96.1163 218.21,96.1581 223.396,96.1581C228.583,96.1581 233.141,96.1163 237.073,96.0326C241.004,95.949 244.81,95.7399 248.491,95.4053C248.491,98.2493 248.24,101.595 247.738,105.443C247.236,109.291 246.483,112.386 245.479,114.728C241.632,115.564 238.62,117.112 236.445,119.37C234.271,121.629 232.347,125.518 230.674,131.039L206.583,213.348C204.91,213.348 202.736,213.306 200.059,213.222C197.382,213.138 194.622,213.055 191.778,212.971C188.934,212.887 186.257,212.678 183.748,212.344C181.238,212.009 179.315,211.591 177.976,211.089C174.463,204.063 171.368,197.706 168.691,192.018C166.015,186.33 163.589,180.934 161.414,175.832C159.239,170.729 157.315,165.669 155.642,160.65C155.308,159.312 154.89,157.89 154.388,156.384L129.043,213.348C127.37,213.348 125.195,213.306 122.518,213.222C119.841,213.138 117.081,213.055 114.237,212.971C111.393,212.887 108.716,212.678 106.207,212.344C103.698,212.009 101.774,211.591 100.435,211.089C98.0933,204.397 95.6257,197.204 93.0326,189.508C90.4396,181.813 87.8047,174.243 85.128,166.798C82.4513,159.353 79.9419,152.369 77.5997,145.844C75.2576,139.32 73.2501,133.883 71.5772,129.533C69.7369,124.682 67.6458,121.127 65.3036,118.868C62.9615,116.61 60.0339,115.313 56.5207,114.979C55.6842,112.637 54.9732,109.751 54.3877,106.321C53.8022,102.892 53.5094,99.253 53.5094,95.4053C66.2238,95.9072 78.4362,96.1581 90.1468,96.1581C97.0059,96.1581 104.199,96.1163 111.728,96.0326C119.256,95.949 126.199,95.7399 132.556,95.4053C132.556,99.253 132.263,102.85 131.678,106.196C131.092,109.542 130.381,112.386 129.545,114.728C127.202,114.895 125.404,115.188 124.149,115.606C122.895,116.024 122.1,116.861 121.765,118.115C121.431,119.37 121.514,121.169 122.016,123.511C122.518,125.853 123.355,128.948 124.526,132.795C126.366,139.32 128.206,146.597 130.046,154.627C130.548,156.133 130.967,157.806 131.301,159.646L156.395,94.6524C159.741,94.6524 163.296,94.7779 167.06,95.0289C170.824,95.2798 174.128,95.9072 176.972,96.9109Z" style="fill:white;fill-rule:nonzero;"/>
    </g>
</svg>
